# xmcd
#
# Track frame offsets: 
#        150
#        12820
#        24865
#        38335
#        50335
#        60142
#        70097
#        84075
#        99160
#        112370
#        122057
#        134870
#        146365
#        157055
#        168947
#        181837
#        196427
#        209275
#        222167
#        235412
#        250452
#        267972
#        279445
#        293450
#        305215
#        316925
#        329320
#        340552
#
# Disc length: 4693 seconds
#
# Revision: 0
# Processed by: cddbd v1.5.2PL0 Copyright (c) Steve Scherf et al.
# Submitted via: ExactAudioCopy v0.95b3
#
DISCID=8812531c
DTITLE=Dave Clark Five  - The Complete History - Vol. 5   Five By Five
DTITLE=1964-69 
DYEAR=1900
DGENRE=
TTITLE0=Just A Little Bit Now
TTITLE1=Maze Of Love
TTITLE2=Return My Love
TTITLE3=Best Day's Work
TTITLE4=Who Do You Think You're Talking To
TTITLE5=Got Love If You Want It
TTITLE6=The Red Balloon
TTITLE7=Please Stay
TTITLE8=Devoted To Me
TTITLE9=34-06
TTITLE10=Away From The Noises
TTITLE11=When I Am Alone
TTITLE12=I Still Need You
TTITLE13=No One Can Break A Heart Like You
TTITLE14=If Somebody Loves You
TTITLE15=It Aint' What You Do
TTITLE16=Live In The Sky
TTITLE17=Five By Five
TTITLE18=Here Comes Summer
TTITLE19=How Do You Get To Heaven
TTITLE20=Everybody Get Together
TTITLE21=Julia
TTITLE22=Break Down And Cry
TTITLE23=I'm On My Own
TTITLE24=Red And Blue
TTITLE25=If You Wanna See Me Cry
TTITLE26=Worried Times
TTITLE27=Darling I Love You
EXTD=
EXTT0=
EXTT1=
EXTT2=
EXTT3=
EXTT4=
EXTT5=
EXTT6=
EXTT7=
EXTT8=
EXTT9=
EXTT10=
EXTT11=
EXTT12=
EXTT13=
EXTT14=
EXTT15=
EXTT16=
EXTT17=
EXTT18=
EXTT19=
EXTT20=
EXTT21=
EXTT22=
EXTT23=
EXTT24=
EXTT25=
EXTT26=
EXTT27=
PLAYORDER=
